HIERARCHY
ROOT joint_Root
{
	OFFSET 0.0 0.0 0.0
	CHANNELS 6 Xposition Yposition Zposition Zrotation Xrotation Yrotation 
	JOINT Hips
	{
		OFFSET 4.5925 91.4895 -427.239
		CHANNELS 6 Xposition Yposition Zposition Zrotation Xrotation Yrotation 
		JOINT Spine
		{
			OFFSET 15.7357 0.0 0.0
			CHANNELS 6 Xposition Yposition Zposition Zrotation Xrotation Yrotation 
			JOINT Chest
			{
				OFFSET 8.98455 -0.406207 0.0
				CHANNELS 6 Xposition Yposition Zposition Zrotation Xrotation Yrotation 
				JOINT Neck
				{
					OFFSET 16.3773 0.0 0.0
					CHANNELS 6 Xposition Yposition Zposition Zrotation Xrotation Yrotation 
					JOINT Head
					{
						OFFSET 6.45672 0.0 0.0
						CHANNELS 6 Xposition Yposition Zposition Zrotation Xrotation Yrotation 
						End Site
						{
							OFFSET 0.0 0.0 0.0
						}
					}
				}
				JOINT Shoulder_L
				{
					OFFSET 12.9942 -0.242716 4.98039
					CHANNELS 6 Xposition Yposition Zposition Zrotation Xrotation Yrotation 
					JOINT UpperArm_L
					{
						OFFSET 5.34809 0.0 0.0
						CHANNELS 6 Xposition Yposition Zposition Zrotation Xrotation Yrotation 
						JOINT LowerArm_L
						{
							OFFSET 24.3286 1.87007e-05 0.0
							CHANNELS 6 Xposition Yposition Zposition Zrotation Xrotation Yrotation 
							JOINT Hand_L
							{
								OFFSET 22.2916 0.0 0.0
								CHANNELS 6 Xposition Yposition Zposition Zrotation Xrotation Yrotation 
								End Site
								{
									OFFSET 0.0 0.0 0.0
								}
							}
						}
					}
				}
				JOINT Shoulder_R
				{
					OFFSET 12.9945 -0.242716 -4.98039
					CHANNELS 6 Xposition Yposition Zposition Zrotation Xrotation Yrotation 
					JOINT UpperArm_R
					{
						OFFSET -5.34813 0.0 0.0
						CHANNELS 6 Xposition Yposition Zposition Zrotation Xrotation Yrotation 
						JOINT LowerArm_R
						{
							OFFSET -24.3289 0.000322201 0.0
							CHANNELS 6 Xposition Yposition Zposition Zrotation Xrotation Yrotation 
							JOINT Hand_R
							{
								OFFSET -22.2915 -0.000108084 0.0
								CHANNELS 6 Xposition Yposition Zposition Zrotation Xrotation Yrotation 
								End Site
								{
									OFFSET 0.0 0.0 0.0
								}
							}
						}
					}
				}
			}
		}
		JOINT UpperLeg_L
		{
			OFFSET -2.19248 -6.46944 0.0
			CHANNELS 6 Xposition Yposition Zposition Zrotation Xrotation Yrotation 
			JOINT LowerLeg_L
			{
				OFFSET 39.0811 0.0 -1.23785e-05
				CHANNELS 6 Xposition Yposition Zposition Zrotation Xrotation Yrotation 
				JOINT Foot_L
				{
					OFFSET 40.9854 0.0 -1.26872e-05
					CHANNELS 6 Xposition Yposition Zposition Zrotation Xrotation Yrotation 
					JOINT Toes_L
					{
						OFFSET 11.7543 0.0 0.0
						CHANNELS 6 Xposition Yposition Zposition Zrotation Xrotation Yrotation 
						End Site
						{
							OFFSET 0.0 0.0 0.0
						}
					}
				}
			}
		}
		JOINT UpperLeg_R
		{
			OFFSET -2.19251 6.46944 0.0
			CHANNELS 6 Xposition Yposition Zposition Zrotation Xrotation Yrotation 
			JOINT LowerLeg_R
			{
				OFFSET -39.0811 -0.00228153 -0.0401928
				CHANNELS 6 Xposition Yposition Zposition Zrotation Xrotation Yrotation 
				JOINT Foot_R
				{
					OFFSET -40.9854 0.0 0.0
					CHANNELS 6 Xposition Yposition Zposition Zrotation Xrotation Yrotation 
					JOINT Toes_R
					{
						OFFSET -11.7543 0.0 0.0
						CHANNELS 6 Xposition Yposition Zposition Zrotation Xrotation Yrotation 
						End Site
						{
							OFFSET 0.0 0.0 0.0
						}
					}
				}
			}
		}
	}
}
MOTION
Frames:	8
Frame Time:	0.0333333
0.000000 0.000000 0.000000 0.000000 0.000000 -0.000000 -0.512473 90.457100 -6.278720 89.863900 -2.790630 12.596500 15.735700 0.000005 -0.000001 88.742000 75.117400 -87.780400 8.984550 -0.406207 -0.000000 21.997900 -0.517322 2.032080 16.377300 -0.000001 -0.000001 10.037200 -3.724510 2.301060 6.456720 -0.000001 -0.000000 -10.862600 -3.870960 5.405430 12.994200 -0.242716 4.980390 -89.455500 -1.781440 -73.000600 5.348090 -0.000007 -0.000001 -81.789200 -24.362400 -85.651800 24.328600 0.000019 0.000005 43.954700 -9.541220 -99.754800 22.291600 -0.000001 0.000005 20.405400 4.823660 10.867800 12.994500 -0.242716 -4.980390 89.061600 9.708660 -84.452600 -5.348130 -0.000001 -0.000004 -52.761800 33.510600 -27.911200 -24.328900 0.000322 -0.000009 1.974280 4.926090 -21.882800 -22.291500 -0.000108 -0.000004 17.073900 5.394200 -2.749800 -2.192480 -6.469440 -0.000000 -175.161000 -11.017500 -3.243490 39.081100 -0.000007 -0.000012 -0.155066 0.232101 33.747000 40.985400 -0.000006 -0.000013 0.733494 6.340440 -67.841200 11.754300 -0.000000 0.000003 -0.000054 -0.000604 -16.601000 -2.192510 6.469440 -0.000001 174.324000 19.277600 177.652000 -39.081100 -0.002282 -0.040193 -0.169536 0.259392 33.675300 -40.985400 0.000008 0.000006 3.772120 12.629600 -68.575600 -11.754300 -0.000006 -0.000006 -0.003572 -0.046915 -18.481300
0.000000 0.000000 0.000000 0.000000 0.000000 -0.000000 -0.521513 90.459800 -6.244850 89.852600 -2.785460 12.564200 15.735700 0.000005 -0.000001 88.735300 75.123300 -87.764900 8.984550 -0.406207 -0.000000 21.986000 -0.519497 2.050060 16.377300 -0.000001 -0.000001 10.033200 -3.732800 2.305550 6.456720 -0.000001 -0.000000 -10.832600 -3.849260 5.385960 12.994200 -0.242716 4.980390 -89.479300 -1.698860 -72.957100 5.348090 -0.000007 -0.000001 -81.675900 -24.313000 -85.634300 24.328600 0.000019 0.000005 43.814800 -9.498690 -99.759300 22.291600 -0.000001 0.000005 20.484800 4.828990 10.765900 12.994500 -0.242716 -4.980390 89.058000 9.731530 -84.444200 -5.348130 -0.000001 -0.000004 -52.712700 33.567900 -27.941400 -24.328900 0.000322 -0.000009 1.947280 4.851520 -21.911400 -22.291500 -0.000108 -0.000004 17.074400 5.393990 -2.743130 -2.192480 -6.469440 -0.000000 -175.151000 -10.988300 -3.237410 39.081100 -0.000007 -0.000012 -0.156176 0.233867 33.735200 40.985400 -0.000006 -0.000013 0.718193 6.318830 -67.866900 11.754300 -0.000000 0.000003 -0.000056 -0.000624 -16.601700 -2.192510 6.469440 -0.000001 174.339000 19.276400 177.662000 -39.081100 -0.002282 -0.040193 -0.169827 0.260057 33.652000 -40.985400 0.000008 0.000006 3.762700 12.612900 -68.591800 -11.754300 -0.000006 -0.000006 -0.003706 -0.048342 -18.539400
0.000000 0.000000 0.000000 0.000000 0.000000 -0.000000 -0.536781 90.461500 -6.209220 89.851100 -2.763960 12.518500 15.735700 0.000005 -0.000001 88.744900 75.131900 -87.774600 8.984550 -0.406207 -0.000000 21.968900 -0.514428 2.048950 16.377300 -0.000001 -0.000001 9.986240 -3.744810 2.318800 6.456720 -0.000001 -0.000000 -10.812200 -3.851510 5.397220 12.994200 -0.242716 4.980390 -89.491000 -1.657130 -72.922400 5.348090 -0.000007 -0.000001 -81.571000 -24.245500 -85.639300 24.328600 0.000019 0.000005 43.868300 -9.448300 -99.691200 22.291600 -0.000001 0.000005 20.498900 4.829560 10.755000 12.994500 -0.242716 -4.980390 89.049800 9.748850 -84.405600 -5.348130 -0.000001 -0.000004 -52.667000 33.666600 -27.970700 -24.328900 0.000322 -0.000009 1.973880 4.903010 -21.971700 -22.291500 -0.000108 -0.000004 17.082000 5.392880 -2.707570 -2.192480 -6.469440 -0.000000 -175.146000 -11.006000 -3.261310 39.081100 -0.000007 -0.000012 -0.154341 0.231198 33.726200 40.985400 -0.000006 -0.000013 0.715841 6.338550 -67.878400 11.754300 -0.000000 0.000003 -0.000054 -0.000608 -16.601100 -2.192510 6.469440 -0.000001 174.344000 19.328200 177.652000 -39.081100 -0.002282 -0.040193 -0.172153 0.263660 33.641100 -40.985400 0.000008 0.000006 3.777120 12.638700 -68.616600 -11.754300 -0.000006 -0.000006 -0.003759 -0.048911 -18.562600
0.000000 0.000000 0.000000 0.000000 0.000000 -0.000000 -0.544472 90.470300 -6.168130 89.853500 -2.778380 12.504500 15.735700 0.000005 -0.000001 88.805100 75.135300 -87.838700 8.984550 -0.406207 -0.000000 21.962400 -0.484462 2.035210 16.377300 -0.000001 -0.000001 9.926970 -3.756020 2.284050 6.456720 -0.000001 -0.000000 -10.733400 -3.853200 5.436100 12.994200 -0.242716 4.980390 -89.501500 -1.623890 -72.930400 5.348090 -0.000007 -0.000001 -81.490000 -24.187700 -85.625500 24.328600 0.000019 0.000005 43.851900 -9.390740 -99.639200 22.291600 -0.000001 0.000005 20.455400 4.828830 10.768800 12.994500 -0.242716 -4.980390 89.046700 9.752170 -84.389600 -5.348130 -0.000001 -0.000004 -52.692300 33.693200 -27.981500 -24.328900 0.000322 -0.000009 1.965200 4.881260 -21.972300 -22.291500 -0.000108 -0.000004 17.020600 5.392050 -2.680910 -2.192480 -6.469440 -0.000000 -175.133000 -11.010100 -3.212670 39.081100 -0.000007 -0.000012 -0.155609 0.233553 33.674700 40.985400 -0.000006 -0.000013 0.704608 6.352740 -67.886800 11.754300 -0.000000 0.000003 -0.000055 -0.000614 -16.601400 -2.192510 6.469440 -0.000001 174.354000 19.276800 177.691000 -39.081100 -0.002282 -0.040193 -0.169722 0.260466 33.594500 -40.985400 0.000008 0.000006 3.764020 12.610900 -68.625400 -11.754300 -0.000006 -0.000006 -0.003654 -0.047792 -18.517000
0.000000 0.000000 0.000000 0.000000 0.000000 -0.000000 -0.554860 90.475800 -6.140670 89.860500 -2.737760 12.474200 15.735700 0.000005 -0.000001 88.776700 75.144300 -87.816900 8.984550 -0.406207 -0.000000 21.944300 -0.499427 2.024610 16.377300 -0.000001 -0.000001 9.888250 -3.770140 2.251590 6.456720 -0.000001 -0.000000 -10.697800 -3.876730 5.417750 12.994200 -0.242716 4.980390 -89.498900 -1.634470 -72.953300 5.348090 -0.000007 -0.000001 -81.451600 -24.130300 -85.595000 24.328600 0.000019 0.000005 43.847700 -9.350220 -99.600100 22.291600 -0.000001 0.000005 20.423200 4.831330 10.721000 12.994500 -0.242716 -4.980390 89.049200 9.735470 -84.394600 -5.348130 -0.000001 -0.000004 -52.740400 33.720200 -27.993200 -24.328900 0.000322 -0.000009 1.977570 4.912970 -21.968600 -22.291500 -0.000108 -0.000004 16.950200 5.392490 -2.695060 -2.192480 -6.469440 -0.000000 -175.143000 -10.986200 -3.216150 39.081100 -0.000007 -0.000012 -0.155636 0.233887 33.641300 40.985400 -0.000006 -0.000013 0.696509 6.359900 -67.881800 11.754300 -0.000000 0.000003 -0.000059 -0.000652 -16.602800 -2.192510 6.469440 -0.000001 174.334000 19.374500 177.699000 -39.081100 -0.002282 -0.040193 -0.169896 0.260970 33.570000 -40.985400 0.000008 0.000006 3.784810 12.665600 -68.636700 -11.754300 -0.000006 -0.000006 -0.003690 -0.048173 -18.532500
0.000000 0.000000 0.000000 0.000000 0.000000 -0.000000 -0.568742 90.479600 -6.121710 89.816400 -2.731680 12.429300 15.735700 0.000005 -0.000001 88.779100 75.160100 -87.811400 8.984550 -0.406207 -0.000000 21.912800 -0.496881 2.039840 16.377300 -0.000001 -0.000001 9.844570 -3.777080 2.228790 6.456720 -0.000001 -0.000000 -10.652600 -3.876410 5.383010 12.994200 -0.242716 4.980390 -89.500700 -1.628600 -72.952500 5.348090 -0.000007 -0.000001 -81.399500 -24.046300 -85.599600 24.328600 0.000019 0.000005 43.915800 -9.316710 -99.544300 22.291600 -0.000001 0.000005 20.301200 4.828520 10.774900 12.994500 -0.242716 -4.980390 89.050000 9.718800 -84.390100 -5.348130 -0.000001 -0.000004 -52.721000 33.816900 -28.049100 -24.328900 0.000322 -0.000009 1.947990 4.839160 -21.969200 -22.291500 -0.000108 -0.000004 16.926200 5.393590 -2.730310 -2.192480 -6.469440 -0.000000 -175.095000 -10.996900 -3.242210 39.081100 -0.000007 -0.000012 -0.157460 0.236594 33.645200 40.985400 -0.000006 -0.000013 0.692802 6.364670 -67.901200 11.754300 -0.000000 0.000003 -0.000062 -0.000681 -16.603900 -2.192510 6.469440 -0.000001 174.393000 19.396000 177.695000 -39.081100 -0.002282 -0.040193 -0.171291 0.263510 33.526200 -40.985400 0.000008 0.000006 3.783940 12.653400 -68.632000 -11.754300 -0.000006 -0.000006 -0.003667 -0.047927 -18.522500
0.000000 0.000000 0.000000 0.000000 0.000000 -0.000000 -0.582839 90.482200 -6.091770 89.811100 -2.718230 12.420500 15.735700 0.000005 -0.000001 88.769300 75.159700 -87.807400 8.984550 -0.406207 -0.000000 21.913400 -0.502518 2.029430 16.377300 -0.000001 -0.000001 9.802580 -3.798720 2.218440 6.456720 -0.000001 -0.000000 -10.594000 -3.890290 5.333940 12.994200 -0.242716 4.980390 -89.500600 -1.629410 -72.956600 5.348090 -0.000007 -0.000001 -81.369000 -23.947700 -85.620700 24.328600 0.000019 0.000005 43.951100 -9.287780 -99.504000 22.291600 -0.000001 0.000005 20.425000 4.831670 10.714500 12.994500 -0.242716 -4.980390 89.047900 9.708990 -84.371900 -5.348130 -0.000001 -0.000004 -52.705800 33.853400 -28.121900 -24.328900 0.000322 -0.000009 1.970190 4.895220 -21.966100 -22.291500 -0.000108 -0.000004 16.931500 5.393460 -2.726020 -2.192480 -6.469440 -0.000000 -175.079000 -10.966100 -3.225460 39.081100 -0.000007 -0.000012 -0.159638 0.240012 33.629200 40.985400 -0.000006 -0.000013 0.671398 6.353770 -67.908900 11.754300 -0.000000 0.000003 -0.000068 -0.000738 -16.606100 -2.192510 6.469440 -0.000001 174.402000 19.386600 177.719000 -39.081100 -0.002282 -0.040193 -0.171170 0.263517 33.507200 -40.985400 0.000008 0.000006 3.786710 12.655300 -68.647400 -11.754300 -0.000006 -0.000006 -0.003744 -0.048748 -18.555900
0.000000 0.000000 0.000000 0.000000 0.000000 -0.000000 -0.598928 90.483100 -6.065430 89.832000 -2.736330 12.414900 15.735700 0.000005 -0.000001 88.785800 75.157600 -87.835500 8.984550 -0.406207 -0.000000 21.917700 -0.495680 2.004710 16.377300 -0.000001 -0.000001 9.793130 -3.799540 2.176180 6.456720 -0.000001 -0.000000 -10.607200 -3.881110 5.291780 12.994200 -0.242716 4.980390 -89.501800 -1.625290 -72.953600 5.348090 -0.000007 -0.000001 -81.349000 -23.878100 -85.645600 24.328600 0.000019 0.000005 44.033500 -9.323970 -99.513100 22.291600 -0.000001 0.000005 20.366900 4.827720 10.790100 12.994500 -0.242716 -4.980390 89.042700 9.701220 -84.336800 -5.348130 -0.000001 -0.000004 -52.654000 33.886600 -28.209600 -24.328900 0.000322 -0.000009 1.968870 4.885880 -21.990600 -22.291500 -0.000108 -0.000004 16.961000 5.392590 -2.698200 -2.192480 -6.469440 -0.000000 -175.090000 -10.979600 -3.197350 39.081100 -0.000007 -0.000012 -0.156603 0.235631 33.608800 40.985400 -0.000006 -0.000013 0.665147 6.363400 -67.920600 11.754300 -0.000000 0.000003 -0.000055 -0.000613 -16.601300 -2.192510 6.469440 -0.000001 174.391000 19.412000 177.733000 -39.081100 -0.002282 -0.040193 -0.170351 0.262224 33.512800 -40.985400 0.000008 0.000006 3.803340 12.643800 -68.675900 -11.754300 -0.000006 -0.000006 -0.003778 -0.049110 -18.570700
